<?xml version="1.0" standalone="no"?>
<!DOCTYPE svg PUBLIC "-//W3C//DTD SVG 20010904//EN"
 "http://www.w3.org/TR/2001/REC-SVG-20010904/DTD/svg10.dtd">
 <svg data-name="Picturefoods logo" version="1.0" xmlns="http://www.w3.org/2000/svg"
 width="16.000000pt" height="16.000000pt" viewBox="0 0 16.000000 16.000000"
 preserveAspectRatio="xMidYMid meet">>
  <path fill="#0f0" d="M4.12 7.91a2.34 2.34 0 0 1 0-.38 3.47 3.47 0 0 1 1.82-3 3.74 3.74 0 0 0-1.83-.46A3.58 3.58 0 0 0 .44 7.53a3.45 3.45 0 0 0 1.71 3 3.58 3.58 0 0 1 1.97-2.62z"/>
  <path fill="red" d="M11.44 7.53a3.58 3.58 0 0 0-3.67-3.49 3.74 3.74 0 0 0-1.83.49 3.47 3.47 0 0 1 1.85 3 3.1 3.1 0 0 1 0 .54 3.5 3.5 0 0 1 1.7 2.58 3.48 3.48 0 0 0 1.95-3.12z"/>
  <path fill="#ff0" d="M4.09 7.53a2.34 2.34 0 0 0 0 .38 3.82 3.82 0 0 1 3.62.16 3.1 3.1 0 0 0 0-.54 3.47 3.47 0 0 0-1.77-3 3.47 3.47 0 0 0-1.85 3z"/>
  <path fill="#00f" d="M5.94 10.53a3.85 3.85 0 0 1-3.79 0 4.9 4.9 0 0 0 0 .54 3.59 3.59 0 0 0 3.63 3.46 3.6 3.6 0 0 0 3.68-3.5v-.38a3.87 3.87 0 0 1-3.52-.12z"/>
  <path fill="#0ff" d="M5.94 10.53a3.47 3.47 0 0 1-1.82-2.62 3.58 3.58 0 0 0-2 2.58 3.85 3.85 0 0 0 3.82.04z"/>
  <path fill="#f0f" d="M7.74 8.07a3.49 3.49 0 0 1-1.8 2.46 3.87 3.87 0 0 0 3.5.08 3.5 3.5 0 0 0-1.7-2.54z"/>
  <path d="M7.61.44c.23.08.58.19 1.13.43a6.8 6.8 0 0 0-2.8 3.66 3.74 3.74 0 0 1 1.83-.46 3.58 3.58 0 0 1 3.67 3.46 3.48 3.48 0 0 1-2 3.12v.38a3.6 3.6 0 0 1-3.66 3.5 3.59 3.59 0 0 1-3.67-3.5 4.9 4.9 0 0 1 0-.54A3.45 3.45 0 0 1 .44 7.53a3.58 3.58 0 0 1 3.67-3.49 3.78 3.78 0 0 1 1.83.43 6.45 6.45 0 0 1 1.72-4m0-.44a.46.46 0 0 0-.25.08 6.69 6.69 0 0 0-1.9 3.72 4.42 4.42 0 0 0-1.4-.23A4 4 0 0 0 0 7.53a3.87 3.87 0 0 0 1.69 3.18v.32a4 4 0 0 0 4.11 3.94 4 4 0 0 0 4.14-3.94v-.13a3.89 3.89 0 0 0 2-3.37A4 4 0 0 0 7.77 3.6a4.15 4.15 0 0 0-1 .12 5.49 5.49 0 0 1 2.17-2.49.43.43 0 0 0 .19-.4.41.41 0 0 0-.19-.36C8.35.23 7.99.11 7.75.03a.35.35 0 0 0-.14 0z"/>
</svg>