<svg id="Ebene_1" data-name="Ebene 1" xmlns="http://www.w3.org/2000/svg" viewBox="0 0 11.87 14.96">
  <defs>
    <style>
      .cls-1 {
        fill: lime;
      }

      .cls-2 {
        fill: red;
      }

      .cls-3 {
        fill: #ff0;
      }

      .cls-4 {
        fill: blue;
      }

      .cls-5 {
        fill: aqua;
      }

      .cls-6 {
        fill: #f0f;
      }
    </style>
  </defs>
  <title>logo-picturefoods-002-fruit-only</title>
  <g>
    <path class="cls-1" d="M6.18,8.38a2.34,2.34,0,0,1,0-.38A3.47,3.47,0,0,1,8,5a3.74,3.74,0,0,0-1.83-.46A3.58,3.58,0,0,0,2.5,8a3.45,3.45,0,0,0,1.71,3A3.58,3.58,0,0,1,6.18,8.38Z" transform="translate(-2.06 -0.47)"/>
    <path class="cls-2" d="M13.5,8A3.58,3.58,0,0,0,9.83,4.51,3.74,3.74,0,0,0,8,5,3.47,3.47,0,0,1,9.85,8a3.1,3.1,0,0,1,0,.54,3.5,3.5,0,0,1,1.7,2.58A3.48,3.48,0,0,0,13.5,8Z" transform="translate(-2.06 -0.47)"/>
    <path class="cls-3" d="M6.15,8a2.34,2.34,0,0,0,0,.38,3.82,3.82,0,0,1,3.62.16,3.1,3.1,0,0,0,0-.54A3.47,3.47,0,0,0,8,5,3.47,3.47,0,0,0,6.15,8Z" transform="translate(-2.06 -0.47)"/>
    <path class="cls-4" d="M8,11A3.85,3.85,0,0,1,4.21,11a4.9,4.9,0,0,0,0,.54A3.59,3.59,0,0,0,7.84,15a3.6,3.6,0,0,0,3.68-3.5c0-.13,0-.25,0-.38A3.87,3.87,0,0,1,8,11Z" transform="translate(-2.06 -0.47)"/>
    <path class="cls-5" d="M8,11A3.47,3.47,0,0,1,6.18,8.38a3.58,3.58,0,0,0-2,2.58A3.85,3.85,0,0,0,8,11Z" transform="translate(-2.06 -0.47)"/>
    <path class="cls-6" d="M9.8,8.54A3.49,3.49,0,0,1,8,11a3.87,3.87,0,0,0,3.5.08A3.5,3.5,0,0,0,9.8,8.54Z" transform="translate(-2.06 -0.47)"/>
    <g id="Kontur">
      <path d="M9.67.91c.23.08.58.19,1.13.43A6.8,6.8,0,0,0,8,5H8a3.74,3.74,0,0,1,1.83-.46A3.58,3.58,0,0,1,13.5,8a3.48,3.48,0,0,1-2,3.12c0,.13,0,.25,0,.38A3.6,3.6,0,0,1,7.84,15a3.59,3.59,0,0,1-3.67-3.5,4.9,4.9,0,0,1,0-.54A3.45,3.45,0,0,1,2.5,8,3.58,3.58,0,0,1,6.17,4.51,3.78,3.78,0,0,1,8,4.94a6.45,6.45,0,0,1,1.72-4m0-.44a.46.46,0,0,0-.25.08A6.69,6.69,0,0,0,7.57,4.3a4.42,4.42,0,0,0-1.4-.23A4,4,0,0,0,2.06,8a3.87,3.87,0,0,0,1.69,3.18c0,.11,0,.21,0,.32a4,4,0,0,0,4.11,3.94A4,4,0,0,0,12,11.5v-.13a3.89,3.89,0,0,0,2-3.37A4,4,0,0,0,9.83,4.07a4.15,4.15,0,0,0-1,.12A5.49,5.49,0,0,1,11,1.7a.43.43,0,0,0,.19-.4A.41.41,0,0,0,11,.94C10.41.7,10.05.58,9.81.5a.35.35,0,0,0-.14,0Z" transform="translate(-2.06 -0.47)"/>
    </g>
  </g>
</svg>
